<svg width="19" height="19" viewBox="0 0 19 19" fill="none" xmlns="http://www.w3.org/2000/svg">
<path d="M9.51901 18.2741C4.70606 18.2741 0.792969 14.3632 0.792969 9.5514C0.792969 4.73287 4.70606 0.822021 9.51901 0.822021C14.332 0.822021 18.245 4.73287 18.245 9.54471C18.245 14.3564 14.332 18.2741 9.51901 18.2741ZM16.8748 10.739C16.6226 10.6571 14.5705 10.0497 12.2322 10.4183C13.2071 13.0937 13.6025 15.2779 13.6775 15.7283C15.3545 14.6022 16.5475 12.8139 16.8748 10.739ZM12.43 16.4176C12.3209 15.7625 11.8846 13.4828 10.8416 10.7664C10.8279 10.7732 10.8074 10.78 10.7939 10.78C6.5876 12.2475 5.081 15.1618 4.94466 15.4348C6.20585 16.4176 7.7943 17.0046 9.51901 17.0046C10.5484 17.0114 11.5369 16.7998 12.43 16.4176ZM3.98343 14.5407C4.15386 14.254 6.19903 10.8687 10.0439 9.61976C10.1394 9.58558 10.2417 9.55824 10.3371 9.53104C10.153 9.10783 9.94847 8.68462 9.73032 8.26839C6.00814 9.38081 2.39501 9.33311 2.06778 9.32627C2.06778 9.40132 2.06098 9.47636 2.06098 9.5514C2.06778 11.4694 2.79042 13.2166 3.98343 14.5407ZM2.22459 8.02944C2.55862 8.03627 5.62638 8.04994 9.11674 7.12164C7.88287 4.92397 6.5467 3.08116 6.35582 2.81499C4.26294 3.79782 2.70861 5.72252 2.22459 8.02944ZM7.7738 2.30991C7.97828 2.58292 9.33489 4.42573 10.5552 6.67123C13.2071 5.67475 14.3252 4.1732 14.4614 3.9821C13.1458 2.81499 11.4142 2.10516 9.51901 2.10516C8.91909 2.10516 8.33285 2.18024 7.7738 2.30991ZM15.2863 4.84208C15.1296 5.05366 13.882 6.65756 11.1279 7.7838C11.2982 8.13866 11.4687 8.50035 11.6255 8.86219C11.68 8.99177 11.7345 9.1215 11.7891 9.24439C14.2706 8.9304 16.7317 9.43549 16.977 9.4832C16.9566 7.72912 16.3294 6.11156 15.2863 4.84208Z" fill="white"/>
</svg>
