<svg width="18" height="19" viewBox="0 0 18 19" fill="none" xmlns="http://www.w3.org/2000/svg">
<path fill-rule="evenodd" clip-rule="evenodd" d="M5.13652 18.1676C6.42602 18.246 7.71398 18.2769 8.99947 18.2739C10.2848 18.2769 11.5729 18.246 12.8625 18.1676C13.9484 18.1016 14.9787 17.7419 15.8376 17.0414C16.665 16.3667 17.1841 15.463 17.4424 14.4506C17.6812 13.5155 17.694 12.5754 17.7056 11.7262L17.7059 11.7095C17.7156 10.9913 17.7238 10.2709 17.7255 9.54965V9.54805V9.54645C17.7238 8.82525 17.7156 8.10477 17.7059 7.38661L17.7056 7.36989C17.694 6.52071 17.681 5.58066 17.4424 4.64539C17.1841 3.63304 16.665 2.72938 15.8376 2.05471C14.9787 1.35422 13.9484 0.994559 12.8625 0.928532C11.5729 0.850114 10.2848 0.81921 8.99947 0.822221C7.71398 0.81921 6.42602 0.850114 5.13652 0.928532C4.05055 0.994559 3.02028 1.35422 2.16124 2.05471C1.33387 2.72938 0.81483 3.63305 0.556496 4.64537C0.317795 5.5808 0.304953 6.521 0.293362 7.37018L0.293144 7.38661C0.283312 8.10477 0.275125 8.82525 0.273438 9.54645V9.54805V9.54965C0.275125 10.2709 0.283312 10.9913 0.293144 11.7095L0.293362 11.7259C0.304953 12.5751 0.317795 13.5153 0.556496 14.4508C0.81483 15.463 1.33387 16.3667 2.16124 17.0414C3.02028 17.7419 4.05055 18.1016 5.13652 18.1676ZM8.99788 16.9105C7.73565 16.9134 6.4762 16.8832 5.21928 16.8067C4.38491 16.7559 3.63596 16.4847 3.02295 15.9848C2.45342 15.5203 2.07461 14.8853 1.87766 14.1137C1.68377 13.3538 1.6685 12.5683 1.6565 11.6909C1.64671 10.9749 1.63861 10.261 1.63694 9.54805C1.63861 8.83514 1.64671 8.1212 1.6565 7.40523C1.6685 6.52781 1.68377 5.74235 1.87766 4.98249C2.07461 4.21074 2.45342 3.57578 3.02295 3.11137C3.63594 2.61149 4.38491 2.3402 5.21928 2.28946C6.4762 2.21302 7.73565 2.18268 8.99788 2.18566H8.99947H9.00107C10.2631 2.18268 11.5228 2.21302 12.7796 2.28946C13.6141 2.3402 14.3629 2.61148 14.9759 3.11135C15.5455 3.57576 15.9243 4.21074 16.1212 4.98247C16.3151 5.74234 16.3304 6.5278 16.3424 7.40523C16.3522 8.1212 16.3603 8.83499 16.3621 9.54805C16.3603 10.2611 16.3522 10.9749 16.3424 11.6909C16.3304 12.5683 16.3151 13.3538 16.1212 14.1137C15.9243 14.8853 15.5455 15.5203 14.9759 15.9848C14.3629 16.4847 13.6141 16.7559 12.7796 16.8067C11.5228 16.8832 10.2631 16.9134 9.00107 16.9105H8.99947H8.99788Z" fill="white"/>
<path fill-rule="evenodd" clip-rule="evenodd" d="M4.75977 9.54795C4.75977 11.8887 6.6574 13.7863 8.99816 13.7863C11.3389 13.7863 13.2365 11.8887 13.2365 9.54795C13.2365 7.20719 11.3389 5.30957 8.99816 5.30957C6.6574 5.30957 4.75977 7.20719 4.75977 9.54795ZM8.99816 12.43C7.40639 12.43 6.1161 11.1397 6.1161 9.54795C6.1161 7.95618 7.40639 6.66589 8.99816 6.66589C10.5899 6.66589 11.8802 7.95618 11.8802 9.54795C11.8802 11.1397 10.5899 12.43 8.99816 12.43Z" fill="white"/>
<path d="M14.7328 4.81098C14.7328 5.36173 14.2863 5.80824 13.7355 5.80824C13.1848 5.80824 12.7383 5.36173 12.7383 4.81098C12.7383 4.26023 13.1848 3.81372 13.7355 3.81372C14.2863 3.81372 14.7328 4.26023 14.7328 4.81098Z" fill="white"/>
</svg>
