<svg width="16" height="16" viewBox="0 0 16 16" fill="none" xmlns="http://www.w3.org/2000/svg">
<path d="M15.735 15.1105V9.67741C15.735 7.00724 15.1603 4.96753 12.0451 4.96753C10.543 4.96753 9.5417 5.78341 9.13376 6.56221H9.09667V5.20866H6.14844V15.1105H9.22655V10.1966C9.22655 8.89861 9.46753 7.65631 11.0622 7.65631C12.6384 7.65631 12.6569 9.12112 12.6569 10.2708V15.0919H15.735V15.1105Z" fill="white"/>
<path d="M1.14258 5.20874H4.22069V15.1106H1.14258V5.20874Z" fill="white"/>
<path d="M2.6805 0.276367C1.69773 0.276367 0.900391 1.07371 0.900391 2.05648C0.900391 3.03925 1.69773 3.85513 2.6805 3.85513C3.66327 3.85513 4.46061 3.03925 4.46061 2.05648C4.46061 1.07371 3.66327 0.276367 2.6805 0.276367Z" fill="white"/>
</svg>
