<svg width="144" height="20" viewBox="0 0 144 20" fill="none" xmlns="http://www.w3.org/2000/svg">
<mask id="path-1-outside-1_3_249" maskUnits="userSpaceOnUse" x="0" y="0" width="144" height="20" fill="black">
<rect fill="white" width="144" height="20"/>
<path d="M1 17.7674V1.13953H2.11628V16.7442H9.76744V17.7674H1Z"/>
<path d="M13.0756 17.7674V2.67442H14.1453V17.7674H13.0756Z"/>
<path d="M24.6601 14.6047L29.7066 2.67442H30.8229L24.3345 17.8605H23.7066L17.2182 2.67442H18.381L24.0787 16.093C24.1562 15.8605 24.35 15.3643 24.6601 14.6047Z"/>
<path d="M33.9013 17.7674V2.67442H34.9711V17.7674H33.9013Z"/>
<path d="M40.5556 17.7674V2.58139H41.0672L50.9742 13.9767C51.3308 14.3798 51.6564 14.7829 51.9509 15.186C52.261 15.5736 52.4238 15.7752 52.4393 15.7907C52.4083 15.4186 52.3928 14.6899 52.3928 13.6047V2.67442H53.4626V17.8605H52.9509L42.8579 6.27907L41.5789 4.72093C41.6099 5.03101 41.6254 5.75969 41.6254 6.90698V17.7674H40.5556Z"/>
<path d="M60.391 3.7907L60.4375 5.76744V17.7674H59.3212V1H59.8328L70.7863 13.6279C71.5305 14.5116 72.1042 15.2171 72.5073 15.7442C72.4453 15 72.4142 14.1473 72.4142 13.186V1.13953H73.5305V17.907H73.0189L61.8561 5.04651C61.0809 4.16279 60.5848 3.57364 60.3677 3.27907L60.391 3.7907Z"/>
<path d="M80.1352 12.5349L77.9724 17.7674H76.8794L83.2049 2.58139H83.8328L90.2049 17.7674H89.0189L86.8328 12.5349H80.1352ZM83.4608 4.30232C83.2282 5 83.0189 5.58139 82.8328 6.04651L80.5073 11.6279H86.4608L84.1584 6.06977C83.8018 5.20155 83.5693 4.6124 83.4608 4.30232Z"/>
<path d="M94.5342 3.62791H89.4179V2.67442H100.697V3.62791H95.5807V17.7674H94.5342V3.62791Z"/>
<path d="M114.595 16.2093C113.571 17.4031 112.013 18 109.92 18C107.827 18 106.269 17.4031 105.246 16.2093C104.223 15.0155 103.711 13.3643 103.711 11.2558V2.67442H104.781V11.2558C104.781 15.1163 106.494 17.0465 109.92 17.0465C113.347 17.0465 115.06 15.1163 115.06 11.2558V2.67442H116.13V11.2558C116.13 13.3643 115.618 15.0155 114.595 16.2093Z"/>
<path d="M121.565 17.7674V2.74419C122.898 2.63566 124.03 2.58139 124.96 2.58139C126.387 2.58139 127.565 2.95349 128.495 3.69767C129.425 4.42636 129.89 5.47287 129.89 6.83721C129.89 7.75194 129.627 8.5969 129.1 9.37209C128.573 10.1473 127.976 10.7752 127.309 11.2558C129.154 13.7054 130.294 15.1705 130.728 15.6512C131.611 16.5659 132.573 17.0853 133.611 17.2093L133.588 17.9302C132.72 17.9147 132.014 17.7907 131.472 17.5581C130.929 17.3101 130.387 16.8992 129.844 16.3256C129.317 15.7519 128.146 14.2093 126.332 11.6977C125.076 11.6977 123.844 11.6589 122.635 11.5814V17.7674H121.565ZM125.751 10.814C126.356 10.814 127.007 10.4109 127.704 9.60465C128.402 8.79845 128.751 7.86046 128.751 6.7907C128.751 5.72093 128.387 4.90698 127.658 4.34884C126.929 3.7907 125.983 3.51163 124.821 3.51163C124.201 3.51163 123.472 3.54264 122.635 3.60465V10.6977C123.751 10.7752 124.79 10.814 125.751 10.814Z"/>
<path d="M135.714 17.7674V2.67442H142.76V3.60465H136.783V9.09302H142.179V10H136.783V16.7907H142.993V17.7674H135.714Z"/>
</mask>
<path d="M1 17.7674V1.13953H2.11628V16.7442H9.76744V17.7674H1Z" fill="black"/>
<path d="M13.0756 17.7674V2.67442H14.1453V17.7674H13.0756Z" fill="black"/>
<path d="M24.6601 14.6047L29.7066 2.67442H30.8229L24.3345 17.8605H23.7066L17.2182 2.67442H18.381L24.0787 16.093C24.1562 15.8605 24.35 15.3643 24.6601 14.6047Z" fill="black"/>
<path d="M33.9013 17.7674V2.67442H34.9711V17.7674H33.9013Z" fill="black"/>
<path d="M40.5556 17.7674V2.58139H41.0672L50.9742 13.9767C51.3308 14.3798 51.6564 14.7829 51.9509 15.186C52.261 15.5736 52.4238 15.7752 52.4393 15.7907C52.4083 15.4186 52.3928 14.6899 52.3928 13.6047V2.67442H53.4626V17.8605H52.9509L42.8579 6.27907L41.5789 4.72093C41.6099 5.03101 41.6254 5.75969 41.6254 6.90698V17.7674H40.5556Z" fill="black"/>
<path d="M60.391 3.7907L60.4375 5.76744V17.7674H59.3212V1H59.8328L70.7863 13.6279C71.5305 14.5116 72.1042 15.2171 72.5073 15.7442C72.4453 15 72.4142 14.1473 72.4142 13.186V1.13953H73.5305V17.907H73.0189L61.8561 5.04651C61.0809 4.16279 60.5848 3.57364 60.3677 3.27907L60.391 3.7907Z" fill="black"/>
<path d="M80.1352 12.5349L77.9724 17.7674H76.8794L83.2049 2.58139H83.8328L90.2049 17.7674H89.0189L86.8328 12.5349H80.1352ZM83.4608 4.30232C83.2282 5 83.0189 5.58139 82.8328 6.04651L80.5073 11.6279H86.4608L84.1584 6.06977C83.8018 5.20155 83.5693 4.6124 83.4608 4.30232Z" fill="black"/>
<path d="M94.5342 3.62791H89.4179V2.67442H100.697V3.62791H95.5807V17.7674H94.5342V3.62791Z" fill="black"/>
<path d="M114.595 16.2093C113.571 17.4031 112.013 18 109.92 18C107.827 18 106.269 17.4031 105.246 16.2093C104.223 15.0155 103.711 13.3643 103.711 11.2558V2.67442H104.781V11.2558C104.781 15.1163 106.494 17.0465 109.92 17.0465C113.347 17.0465 115.06 15.1163 115.06 11.2558V2.67442H116.13V11.2558C116.13 13.3643 115.618 15.0155 114.595 16.2093Z" fill="black"/>
<path d="M121.565 17.7674V2.74419C122.898 2.63566 124.03 2.58139 124.96 2.58139C126.387 2.58139 127.565 2.95349 128.495 3.69767C129.425 4.42636 129.89 5.47287 129.89 6.83721C129.89 7.75194 129.627 8.5969 129.1 9.37209C128.573 10.1473 127.976 10.7752 127.309 11.2558C129.154 13.7054 130.294 15.1705 130.728 15.6512C131.611 16.5659 132.573 17.0853 133.611 17.2093L133.588 17.9302C132.72 17.9147 132.014 17.7907 131.472 17.5581C130.929 17.3101 130.387 16.8992 129.844 16.3256C129.317 15.7519 128.146 14.2093 126.332 11.6977C125.076 11.6977 123.844 11.6589 122.635 11.5814V17.7674H121.565ZM125.751 10.814C126.356 10.814 127.007 10.4109 127.704 9.60465C128.402 8.79845 128.751 7.86046 128.751 6.7907C128.751 5.72093 128.387 4.90698 127.658 4.34884C126.929 3.7907 125.983 3.51163 124.821 3.51163C124.201 3.51163 123.472 3.54264 122.635 3.60465V10.6977C123.751 10.7752 124.79 10.814 125.751 10.814Z" fill="black"/>
<path d="M135.714 17.7674V2.67442H142.76V3.60465H136.783V9.09302H142.179V10H136.783V16.7907H142.993V17.7674H135.714Z" fill="black"/>
<path d="M1 17.7674V1.13953H2.11628V16.7442H9.76744V17.7674H1Z" stroke="black" stroke-width="2" mask="url(#path-1-outside-1_3_249)"/>
<path d="M13.0756 17.7674V2.67442H14.1453V17.7674H13.0756Z" stroke="black" stroke-width="2" mask="url(#path-1-outside-1_3_249)"/>
<path d="M24.6601 14.6047L29.7066 2.67442H30.8229L24.3345 17.8605H23.7066L17.2182 2.67442H18.381L24.0787 16.093C24.1562 15.8605 24.35 15.3643 24.6601 14.6047Z" stroke="black" stroke-width="2" mask="url(#path-1-outside-1_3_249)"/>
<path d="M33.9013 17.7674V2.67442H34.9711V17.7674H33.9013Z" stroke="black" stroke-width="2" mask="url(#path-1-outside-1_3_249)"/>
<path d="M40.5556 17.7674V2.58139H41.0672L50.9742 13.9767C51.3308 14.3798 51.6564 14.7829 51.9509 15.186C52.261 15.5736 52.4238 15.7752 52.4393 15.7907C52.4083 15.4186 52.3928 14.6899 52.3928 13.6047V2.67442H53.4626V17.8605H52.9509L42.8579 6.27907L41.5789 4.72093C41.6099 5.03101 41.6254 5.75969 41.6254 6.90698V17.7674H40.5556Z" stroke="black" stroke-width="2" mask="url(#path-1-outside-1_3_249)"/>
<path d="M60.391 3.7907L60.4375 5.76744V17.7674H59.3212V1H59.8328L70.7863 13.6279C71.5305 14.5116 72.1042 15.2171 72.5073 15.7442C72.4453 15 72.4142 14.1473 72.4142 13.186V1.13953H73.5305V17.907H73.0189L61.8561 5.04651C61.0809 4.16279 60.5848 3.57364 60.3677 3.27907L60.391 3.7907Z" stroke="black" stroke-width="2" mask="url(#path-1-outside-1_3_249)"/>
<path d="M80.1352 12.5349L77.9724 17.7674H76.8794L83.2049 2.58139H83.8328L90.2049 17.7674H89.0189L86.8328 12.5349H80.1352ZM83.4608 4.30232C83.2282 5 83.0189 5.58139 82.8328 6.04651L80.5073 11.6279H86.4608L84.1584 6.06977C83.8018 5.20155 83.5693 4.6124 83.4608 4.30232Z" stroke="black" stroke-width="2" mask="url(#path-1-outside-1_3_249)"/>
<path d="M94.5342 3.62791H89.4179V2.67442H100.697V3.62791H95.5807V17.7674H94.5342V3.62791Z" stroke="black" stroke-width="2" mask="url(#path-1-outside-1_3_249)"/>
<path d="M114.595 16.2093C113.571 17.4031 112.013 18 109.92 18C107.827 18 106.269 17.4031 105.246 16.2093C104.223 15.0155 103.711 13.3643 103.711 11.2558V2.67442H104.781V11.2558C104.781 15.1163 106.494 17.0465 109.92 17.0465C113.347 17.0465 115.06 15.1163 115.06 11.2558V2.67442H116.13V11.2558C116.13 13.3643 115.618 15.0155 114.595 16.2093Z" stroke="black" stroke-width="2" mask="url(#path-1-outside-1_3_249)"/>
<path d="M121.565 17.7674V2.74419C122.898 2.63566 124.03 2.58139 124.96 2.58139C126.387 2.58139 127.565 2.95349 128.495 3.69767C129.425 4.42636 129.89 5.47287 129.89 6.83721C129.89 7.75194 129.627 8.5969 129.1 9.37209C128.573 10.1473 127.976 10.7752 127.309 11.2558C129.154 13.7054 130.294 15.1705 130.728 15.6512C131.611 16.5659 132.573 17.0853 133.611 17.2093L133.588 17.9302C132.72 17.9147 132.014 17.7907 131.472 17.5581C130.929 17.3101 130.387 16.8992 129.844 16.3256C129.317 15.7519 128.146 14.2093 126.332 11.6977C125.076 11.6977 123.844 11.6589 122.635 11.5814V17.7674H121.565ZM125.751 10.814C126.356 10.814 127.007 10.4109 127.704 9.60465C128.402 8.79845 128.751 7.86046 128.751 6.7907C128.751 5.72093 128.387 4.90698 127.658 4.34884C126.929 3.7907 125.983 3.51163 124.821 3.51163C124.201 3.51163 123.472 3.54264 122.635 3.60465V10.6977C123.751 10.7752 124.79 10.814 125.751 10.814Z" stroke="black" stroke-width="2" mask="url(#path-1-outside-1_3_249)"/>
<path d="M135.714 17.7674V2.67442H142.76V3.60465H136.783V9.09302H142.179V10H136.783V16.7907H142.993V17.7674H135.714Z" stroke="black" stroke-width="2" mask="url(#path-1-outside-1_3_249)"/>
</svg>
