<svg width="14" height="14" viewBox="0 0 14 14" fill="none" xmlns="http://www.w3.org/2000/svg">
<g clip-path="url(#clip0_159_6)">
<path d="M8.30413 6.71098L13.1041 1.91098C13.2931 1.69626 13.393 1.4176 13.3837 1.13174C13.3744 0.845885 13.2564 0.574343 13.0538 0.372423C12.8513 0.170504 12.5794 0.0533957 12.2935 0.0449525C12.0076 0.0365093 11.7292 0.137366 11.5151 0.32698L6.71513 5.12698L1.91513 0.32698C1.81474 0.208183 1.69079 0.111514 1.55112 0.0430871C1.41144 -0.0253393 1.25909 -0.0640332 1.10369 -0.070547C0.948293 -0.0770608 0.793235 -0.0512532 0.648325 0.00524438C0.503415 0.0617419 0.371808 0.147699 0.261829 0.257678C0.151849 0.367657 0.0658923 0.499265 0.00939477 0.644175C-0.0471028 0.789084 -0.0729104 0.944142 -0.0663966 1.09954C-0.0598828 1.25494 -0.0211889 1.40729 0.0472375 1.54696C0.115664 1.68664 0.212333 1.81059 0.33113 1.91098L5.13113 6.71098L0.33113 11.511C0.149229 11.7262 0.0548269 12.002 0.0666295 12.2835C0.0784322 12.5651 0.195578 12.832 0.394855 13.0313C0.594131 13.2305 0.860997 13.3477 1.14257 13.3595C1.42414 13.3713 1.69988 13.2769 1.91513 13.095L6.71513 8.29498L11.5151 13.095C11.6155 13.2138 11.7395 13.3104 11.8791 13.3789C12.0188 13.4473 12.1712 13.486 12.3266 13.4925C12.482 13.499 12.637 13.4732 12.7819 13.4167C12.9268 13.3602 13.0585 13.2743 13.1684 13.1643C13.2784 13.0543 13.3644 12.9227 13.4209 12.7778C13.4774 12.6329 13.5032 12.4778 13.4967 12.3224C13.4901 12.167 13.4514 12.0147 13.383 11.875C13.3146 11.7353 13.2179 11.6114 13.0991 11.511L8.30413 6.71098Z" fill="black"/>
</g>
<defs>
<clipPath id="clip0_159_6">
<rect width="13.426" height="13.423" fill="white"/>
</clipPath>
</defs>
</svg>
